<?xml version="1.0" encoding="UTF-8" standalone="no"?>
<!DOCTYPE svg PUBLIC "-//W3C//DTD SVG 1.1//EN" "http://www.w3.org/Graphics/SVG/1.1/DTD/svg11.dtd">
<svg width="100%" height="100%" viewBox="0 0 775 775" version="1.1" xmlns="http://www.w3.org/2000/svg" xmlns:xlink="http://www.w3.org/1999/xlink" xml:space="preserve" xmlns:serif="http://www.serif.com/" style="fill-rule:evenodd;clip-rule:evenodd;stroke-linecap:round;stroke-linejoin:round;stroke-miterlimit:1.5;">
    <g transform="matrix(1.15833,0,0,1.15833,-894.645,-964.024)">
        <circle cx="1106.54" cy="1166.49" r="331.681" style="fill:rgb(58,58,58);stroke:black;stroke-width:5.24px;"/>
    </g>
    <g transform="matrix(1,0,0,1,-1076,-1158)">
        <path d="M1200.09,1402.59C1197.93,1395.07 1199.07,1386.98 1203.24,1380.34C1207.4,1373.71 1214.2,1369.17 1221.92,1367.86C1306.96,1353.08 1382.82,1312.16 1449.15,1244.09C1454.1,1238.98 1461.03,1236.28 1468.13,1236.67C1475.24,1237.08 1481.82,1240.54 1486.17,1246.18C1548.69,1326.75 1626.24,1374.88 1718.18,1391.97C1724.16,1393.05 1729.38,1396.63 1732.55,1401.81C1735.71,1407 1736.51,1413.28 1734.74,1419.09C1704.46,1519.19 1701.24,1608.74 1725.55,1687.59C1727.61,1694.09 1726.7,1701.17 1723.07,1706.95C1719.44,1712.72 1713.46,1716.61 1706.71,1717.58C1614.39,1731.24 1533.83,1772.56 1467.05,1846.29C1462.51,1851.34 1455.91,1854.06 1449.13,1853.67C1442.35,1853.29 1436.1,1849.85 1432.16,1844.32C1380.65,1771.81 1303.13,1722.98 1202.98,1694.7C1195.4,1692.58 1189.08,1687.34 1185.59,1680.29C1182.1,1673.24 1181.77,1665.04 1184.67,1657.73C1217.96,1573.37 1224.97,1488.37 1200.09,1402.59Z" style="fill:rgb(89,89,89);stroke:black;stroke-width:6.06px;"/>
    </g>
    <g transform="matrix(1.24,0,0,1,-1434.43,-1158)">
        <rect x="1454.98" y="1265.32" width="31.589" height="259.027" style="fill:white;stroke:black;stroke-width:5.38px;"/>
    </g>
</svg>
